<?xml version="1.0" encoding="UTF-8"?>
<!-- Generated by jsxcad -->
<!DOCTYPE svg PUBLIC "-//W3C//DTD SVG 1.1 Tiny//EN" "http://www.w3.org/Graphics/SVG/1.1/DTD/svg11-tiny.dtd">
<svg baseProfile="tiny" height="113.70162mm" width="116.68572mm" viewBox="-0.00024 8.96550 116.68572 113.70162" version="1.1" stroke="black" stroke-width=".1" fill="none" xmlns="http://www.w3.org/2000/svg">
<path fill="#000000" stroke="#000000" d="M84.65122 59.71303 L85.16622 57.59394 L86.06645 55.62701 L87.31428 53.87445 L88.88766 52.37296 L90.71502 51.19890 L92.71404 50.39797 L94.85223 49.98492 L97.01874 49.98492 L99.15693 50.39797 L101.15595 51.19890 L102.98330 52.37296 L104.55669 53.87445 L105.80452 55.62701 L106.70474 57.59394 L107.21975 59.71303 L107.32257 61.87588 L107.01182 64.03049 L106.30660 66.06619 L105.21763 67.95162 L103.79755 69.58851 L102.10746 70.91805 L100.16373 71.92021 L98.08739 72.52839 L95.93548 72.73333 L93.78357 72.52839 L91.70724 71.92021 L89.76351 70.91805 L88.07341 69.58851 L86.65334 67.95162 L85.56436 66.06619 L84.85914 64.03049 L84.54840 61.87588 z M106.32182 60.80035 L106.00194 58.72059 L105.26827 56.74431 L104.15619 54.96309 L102.70991 53.44238 L100.98844 52.24336 L99.04078 51.40775 L96.99038 50.98697 L94.88058 50.98697 L92.83019 51.40775 L90.88253 52.24336 L89.16106 53.44238 L87.71478 54.96309 L86.60270 56.74431 L85.86903 58.72059 L85.54915 60.80035 L85.65418 62.90010 L86.18466 64.95015 L87.10530 66.82767 L88.40445 68.50575 L89.98600 69.86350 L91.82727 70.88752 L93.83491 71.51899 L95.93548 71.73333 L98.03606 71.51899 L100.04370 70.88752 L101.88496 69.86350 L103.46652 68.50575 L104.76567 66.82767 L105.68631 64.95015 L106.21679 62.90010 z"/>
<path fill="#000000" stroke="#000000" d="M85.54915 60.80035 L85.86903 58.72059 L86.60270 56.74431 L87.71478 54.96309 L89.16106 53.44238 L90.88253 52.24336 L92.83019 51.40775 L94.88058 50.98697 L96.99038 50.98697 L99.04078 51.40775 L100.98844 52.24336 L102.70991 53.44238 L104.15619 54.96309 L105.26827 56.74431 L106.00194 58.72059 L106.32182 60.80035 L106.21679 62.90010 L105.68631 64.95015 L104.76567 66.82767 L103.46652 68.50575 L101.88496 69.86350 L100.04370 70.88752 L98.03606 71.51899 L95.93548 71.73333 L93.83491 71.51899 L91.82727 70.88752 L89.98600 69.86350 L88.40445 68.50575 L87.10530 66.82767 L86.18466 64.95015 L85.65418 62.90010 z"/>
<path fill="#000000" stroke="#000000" d="M95.93548 82.08333 L98.88472 81.87267 L101.79908 81.23762 L104.55010 80.21059 L107.16956 78.77919 L109.51195 77.02543 L111.62758 74.90980 L113.38134 72.56741 L114.81274 69.94795 L114.91153 69.68333 L116.68548 69.68333 L116.68548 82.08333 z"/>
<path fill="#000000" stroke="#000000" d="M58.93955 25.82879 L59.20539 23.66735 L59.87291 21.60624 L60.92466 19.69933 L62.30255 18.04433 L63.98251 16.66762 L65.89573 15.63340 L67.94749 14.98625 L70.09610 14.73585 L72.27078 14.89880 L74.36009 15.46738 L76.31414 16.42686 L78.03351 17.72499 L79.49171 19.34190 L80.61142 21.19723 L81.35555 23.21474 L81.71008 25.37269 L81.64894 27.53540 L81.18089 29.64577 L80.32289 31.62984 L79.10457 33.41778 L77.55228 34.95818 L75.76669 36.15641 L73.77190 37.00307 L71.64266 37.45814 L69.48872 37.50184 L67.34319 37.13361 L65.31723 36.36940 L63.45991 35.22655 L61.86603 33.76409 L60.58321 32.03698 L59.63953 30.07752 L59.08561 27.97733 z M80.69065 25.16870 L80.28375 23.10150 L79.47934 21.17855 L78.28318 19.42557 L76.78066 17.97124 L74.99378 16.83493 L73.02854 16.08806 L70.95141 15.75159 L68.84522 15.84066 L66.80801 16.34983 L64.91567 17.25721 L63.24458 18.52550 L61.84954 20.12095 L60.81748 21.94196 L60.16744 23.94912 L59.93600 26.02941 L60.13087 28.13978 L60.74116 30.14693 L61.74228 31.99139 L63.09421 33.59818 L64.74829 34.90507 L66.62832 35.85017 L68.65827 36.39720 L70.77204 36.52417 L72.84188 36.22680 L74.83860 35.50787 L76.61758 34.42159 L78.15910 32.98541 L79.37842 31.27000 L80.22954 29.33766 L80.67283 27.27323 z"/>
<path fill="#000000" stroke="#000000" d="M59.93600 26.02941 L60.16744 23.94912 L60.81748 21.94196 L61.84954 20.12095 L63.24458 18.52550 L64.91567 17.25721 L66.80801 16.34983 L68.84522 15.84066 L70.95141 15.75159 L73.02854 16.08806 L74.99378 16.83493 L76.78066 17.97124 L78.28318 19.42557 L79.47934 21.17855 L80.28375 23.10150 L80.69065 25.16870 L80.67283 27.27323 L80.22954 29.33766 L79.37842 31.27000 L78.15910 32.98541 L76.61758 34.42159 L74.83860 35.50787 L72.84188 36.22680 L70.77204 36.52417 L68.65827 36.39720 L66.62832 35.85017 L64.74829 34.90507 L63.09421 33.59818 L61.74228 31.99139 L60.74116 30.14693 L60.13087 28.13978 z"/>
<path fill="#000000" stroke="#000000" d="M84.12594 10.65315 L84.67251 8.96550 L96.46927 12.78604 L90.07602 32.52658 L90.78430 29.65591 L91.07808 26.68766 L90.94862 23.75404 L90.39394 20.82099 L89.44720 18.05220 L88.08634 15.38765 L86.39825 12.99750 L84.34725 10.82866 z"/>
<path fill="#000000" stroke="#000000" d="M40.15319 41.87253 L39.52940 43.93463 L38.51642 45.86149 L37.16377 47.55230 L35.50307 48.96576 L33.61979 50.02993 L31.58088 50.71652 L29.42575 51.00876 L27.25716 50.88684 L25.16857 50.36207 L23.19497 49.44156 L21.44085 48.17000 L19.95209 46.58064 L18.80366 44.75891 L18.01322 42.73584 L17.62058 40.59672 L17.63886 38.44539 L18.06442 36.32451 L18.89117 34.30653 L20.07733 32.49503 L21.59349 30.93293 L23.35925 29.69864 L25.34752 28.81123 L27.45799 28.31939 L29.60670 28.23486 L31.76863 28.56426 L33.80668 29.29048 L35.66926 30.38753 L37.29127 31.81645 L38.61542 33.52749 L39.60098 35.47969 L40.18904 37.54809 L40.37809 39.70686 z M39.35251 40.35160 L39.28553 38.23046 L38.80191 36.20292 L37.91214 34.29316 L36.65727 32.60358 L35.08234 31.19718 L33.25581 30.13787 L31.25971 29.47082 L29.16792 29.21926 L27.09053 29.39033 L25.05379 29.98649 L23.20645 30.96629 L21.57374 32.31477 L20.25634 33.95319 L19.29469 35.82480 L18.72880 37.85550 L18.58377 39.95036 L18.86223 42.03044 L19.55229 44.01158 L20.63879 45.83124 L22.05193 47.37533 L23.76013 48.61360 L25.66719 49.47632 L27.73454 49.94288 L29.83205 49.98245 L31.89556 49.60004 L33.84137 48.81057 L35.59530 47.64108 L37.07492 46.14495 L38.22226 44.38324 L38.99596 42.41208 z"/>
<path fill="#000000" stroke="#000000" d="M38.99596 42.41208 L38.22226 44.38324 L37.07492 46.14495 L35.59530 47.64108 L33.84137 48.81057 L31.89556 49.60004 L29.83205 49.98245 L27.73454 49.94288 L25.66719 49.47632 L23.76013 48.61360 L22.05193 47.37533 L20.63879 45.83124 L19.55229 44.01158 L18.86223 42.03044 L18.58377 39.95036 L18.72880 37.85550 L19.29469 35.82480 L20.25634 33.95319 L21.57374 32.31477 L23.20645 30.96629 L25.05379 29.98649 L27.09053 29.39033 L29.16792 29.21926 L31.25971 29.47082 L33.25581 30.13787 L35.08234 31.19718 L36.65727 32.60358 L37.91214 34.29316 L38.80191 36.20292 L39.28553 38.23046 L39.35251 40.35160 z"/>
<path fill="#000000" stroke="#000000" d="M17.07894 20.67851 L24.35667 10.63885 L41.15690 22.81731 L38.64541 21.25692 L35.91308 20.06061 L33.08293 19.27754 L30.12199 18.89907 L27.19617 18.94422 L24.24155 19.41545 L21.44684 20.28266 L18.75052 21.56340 L18.51522 21.71967 z"/>
<path fill="#000000" stroke="#000000" d="M39.94367 86.16743 L39.15323 88.19051 L38.00480 90.01224 L36.51604 91.60159 L34.76192 92.87315 L32.78832 93.79366 L30.69973 94.31843 L28.53114 94.44035 L26.37601 94.14811 L24.33710 93.46152 L22.45382 92.39735 L20.79312 90.98389 L19.44047 89.29309 L18.42749 87.36623 L17.80370 85.30413 L17.57879 83.13845 L17.76785 80.97969 L18.35591 78.91128 L19.34147 76.95908 L20.66562 75.24804 L22.28763 73.81912 L24.15021 72.72207 L26.18826 71.99585 L28.35019 71.66645 L30.49890 71.75098 L32.60937 72.24282 L34.59764 73.13023 L36.36340 74.36452 L37.87956 75.92662 L39.06572 77.73812 L39.89247 79.75611 L40.31803 81.87699 L40.33631 84.02831 z M39.37312 83.38195 L39.22809 81.28709 L38.66220 79.25639 L37.70055 77.38478 L36.38315 75.74636 L34.75044 74.39788 L32.90310 73.41808 L30.86636 72.82192 L28.78897 72.65086 L26.69718 72.90242 L24.70108 73.56946 L22.87455 74.62877 L21.29962 76.03517 L20.04475 77.72475 L19.15498 79.63452 L18.67136 81.66205 L18.60438 83.78320 L18.96093 85.84367 L19.73463 87.81483 L20.88197 89.57654 L22.36159 91.07267 L24.11551 92.24217 L26.06133 93.03164 L28.12484 93.41404 L30.22235 93.37447 L32.28970 92.90791 L34.19676 92.04519 L35.90496 90.80692 L37.31810 89.26283 L38.40460 87.44318 L39.09466 85.46204 z"/>
<path fill="#000000" stroke="#000000" d="M39.09466 85.46204 L38.40460 87.44318 L37.31810 89.26283 L35.90496 90.80692 L34.19676 92.04519 L32.28970 92.90791 L30.22235 93.37447 L28.12484 93.41404 L26.06133 93.03164 L24.11551 92.24217 L22.36159 91.07267 L20.88197 89.57654 L19.73463 87.81483 L18.96093 85.84367 L18.60438 83.78320 L18.67136 81.66205 L19.15498 79.63452 L20.04475 77.72475 L21.29962 76.03517 L22.87455 74.62877 L24.70108 73.56946 L26.69718 72.90242 L28.78897 72.65086 L30.86636 72.82192 L32.90310 73.41808 L34.75044 74.39788 L36.38315 75.74636 L37.70055 77.38478 L38.66220 79.25639 L39.22809 81.28709 L39.37312 83.38195 z"/>
<path fill="#000000" stroke="#000000" d="M8.25998 84.19267 L8.63844 87.15362 L8.71377 87.42585 L7.27749 88.46701 L-0.00024 78.42735 L16.79999 66.24890 L14.53578 68.15041 L12.54889 70.37505 L10.92430 72.82120 L9.64357 75.51752 L8.77636 78.31224 L8.30513 81.26685 z"/>
<path fill="#000000" stroke="#000000" d="M58.96089 95.77269 L59.31542 93.61474 L60.05955 91.59723 L61.17926 89.74190 L62.63745 88.12499 L64.35683 86.82686 L66.31088 85.86738 L68.40019 85.29880 L70.57486 85.13585 L72.72348 85.38625 L74.77524 86.03340 L76.68845 87.06762 L78.36842 88.44433 L79.74631 90.09933 L80.79805 92.00624 L81.46558 94.06735 L81.73142 96.22879 L81.58536 98.37733 L81.03143 100.47752 L80.08776 102.43698 L78.80493 104.16409 L77.21106 105.62655 L75.35374 106.76940 L73.32778 107.53361 L71.18225 107.90184 L69.02830 107.85814 L66.89907 107.40307 L64.90428 106.55641 L63.11869 105.35818 L61.56640 103.81778 L60.34807 102.02984 L59.49008 100.04577 L59.02203 97.93540 z M80.73496 96.42941 L80.50353 94.34912 L79.85349 92.34196 L78.82143 90.52095 L77.42639 88.92550 L75.75530 87.65721 L73.86296 86.74983 L71.82575 86.24066 L69.71956 86.15159 L67.64242 86.48806 L65.67719 87.23493 L63.89031 88.37124 L62.38778 89.82557 L61.19163 91.57855 L60.38722 93.50150 L59.98032 95.56870 L59.99814 97.67323 L60.44143 99.73766 L61.29255 101.67000 L62.51187 103.38541 L64.05338 104.82159 L65.83237 105.90787 L67.82909 106.62680 L69.89893 106.92417 L72.01269 106.79720 L74.04265 106.25017 L75.92267 105.30507 L77.57676 103.99818 L78.92869 102.39139 L79.92981 100.54693 L80.54010 98.53978 z"/>
<path fill="#000000" stroke="#000000" d="M59.98032 95.56870 L60.38722 93.50150 L61.19163 91.57855 L62.38778 89.82557 L63.89031 88.37124 L65.67719 87.23493 L67.64242 86.48806 L69.71956 86.15159 L71.82575 86.24066 L73.86296 86.74983 L75.75530 87.65721 L77.42639 88.92550 L78.82143 90.52095 L79.85349 92.34196 L80.50353 94.34912 L80.73496 96.42941 L80.54010 98.53978 L79.92981 100.54693 L78.92869 102.39139 L77.57676 103.99818 L75.92267 105.30507 L74.04265 106.25017 L72.01269 106.79720 L69.89893 106.92417 L67.82909 106.62680 L65.83237 105.90787 L64.05338 104.82159 L62.51187 103.38541 L61.29255 101.67000 L60.44143 99.73766 L59.99814 97.67323 z"/>
<path fill="#000000" stroke="#000000" d="M56.98819 122.66712 L50.59494 102.92658 L51.70404 105.66743 L53.20613 108.24435 L55.03082 110.54510 L57.19965 112.59610 L59.58980 114.28419 L62.25436 115.64505 L65.02314 116.59179 L67.95619 117.14647 L68.23837 117.15892 L68.78494 118.84658 z"/>
</svg>