<?xml version="1.0" encoding="UTF-8"?>
<!-- Generated by jsxcad -->
<!DOCTYPE svg PUBLIC "-//W3C//DTD SVG 1.1 Tiny//EN" "http://www.w3.org/Graphics/SVG/1.1/DTD/svg11-tiny.dtd">
<svg baseProfile="tiny" height="114.54324mm" width="118.18969mm" viewBox="-0.00003 9.70608 118.18969 114.54324" version="1.1" stroke="black" stroke-width=".1" fill="none" xmlns="http://www.w3.org/2000/svg">
<path fill="#000000" stroke="#000000" d="M86.70960 61.54690 L87.02640 59.48714 L87.04051 59.44913 L87.76713 57.49185 L87.78852 57.45760 L88.88990 55.69351 L88.91772 55.66426 L90.35009 54.15817 L90.38319 54.13511 L92.08811 52.94762 L92.12557 52.93155 L94.05450 52.10398 L94.09393 52.09589 L96.12461 51.67915 L96.16519 51.67915 L98.25470 51.67915 L98.29413 51.68725 L100.32481 52.10398 L100.36227 52.12005 L102.29120 52.94762 L102.32430 52.97068 L104.02922 54.15817 L104.05703 54.18742 L105.48941 55.69351 L105.51079 55.72776 L106.61218 57.49185 L106.62629 57.52986 L107.35291 59.48714 L107.35906 59.52713 L107.67586 61.58689 L107.67384 61.62727 L107.56982 63.70683 L107.55962 63.74625 L107.03424 65.77659 L107.01654 65.81270 L106.10475 67.67217 L106.07977 67.70444 L104.79310 69.36638 L104.76269 69.39249 L103.19634 70.73718 L103.16093 70.75688 L101.33737 71.77106 L101.29876 71.78320 L99.31043 72.40859 L99.27003 72.41272 L97.18966 72.62500 L97.14926 72.62088 L95.06888 72.40859 L95.03027 72.39645 L93.04194 71.77106 L93.00653 71.75137 L91.18297 70.73718 L91.15255 70.71107 L89.58621 69.36638 L89.56122 69.33411 L88.27456 67.67217 L88.25686 67.63606 L87.34507 65.77659 L87.33487 65.73717 L86.80949 63.70683 L86.80747 63.66645 L86.70345 61.58689 z M105.67057 61.69267 L105.51065 60.65293 L105.40973 59.99678 L105.04041 59.00195 L104.80735 58.37414 L104.25307 57.48635 L103.90328 56.92609 L103.17823 56.16373 L102.72067 55.68263 L101.86301 55.08525 L101.32176 54.70827 L100.34088 54.28744 L99.72188 54.02187 L98.69800 53.81175 L98.05187 53.67915 L96.99463 53.67915 L96.32744 53.67915 L95.30357 53.88927 L94.65743 54.02187 L93.67655 54.44270 L93.05755 54.70827 L92.19988 55.30564 L91.65864 55.68263 L90.93359 56.44499 L90.47603 56.92609 L89.92175 57.81389 L89.57196 58.37414 L89.20264 59.36897 L88.96958 59.99678 L88.80966 61.03652 L88.70874 61.69267 L88.76133 62.74392 L88.79451 63.40733 L89.06014 64.43385 L89.22776 65.08165 L89.69016 66.02464 L89.98196 66.61973 L90.63142 67.45863 L91.04128 67.98803 L91.83303 68.66774 L92.33268 69.09668 L93.25194 69.60793 L93.83206 69.93057 L94.84324 70.24862 L95.48137 70.44933 L96.52871 70.55620 L97.18966 70.62364 L98.23700 70.51677 L98.89794 70.44933 L99.90912 70.13128 L100.54725 69.93057 L101.46651 69.41932 L102.04663 69.09668 L102.83838 68.41697 L103.33803 67.98803 L103.98750 67.14913 L104.39735 66.61973 L104.85975 65.67674 L105.15155 65.08165 L105.41717 64.05513 L105.58480 63.40733 L105.63738 62.35608 z"/>
<path fill="#000000" stroke="#000000" d="M88.70874 61.69267 L88.80966 61.03652 L88.96958 59.99678 L89.20264 59.36897 L89.57196 58.37414 L89.92175 57.81389 L90.47603 56.92609 L90.93359 56.44499 L91.65864 55.68263 L92.19988 55.30564 L93.05755 54.70827 L93.67655 54.44270 L94.65743 54.02187 L95.30357 53.88927 L96.32744 53.67915 L96.99463 53.67915 L98.05187 53.67915 L98.69800 53.81175 L99.72188 54.02187 L100.34088 54.28744 L101.32176 54.70827 L101.86301 55.08525 L102.72067 55.68263 L103.17823 56.16373 L103.90328 56.92609 L104.25307 57.48635 L104.80735 58.37414 L105.04041 59.00195 L105.40973 59.99678 L105.51065 60.65293 L105.67057 61.69267 L105.63738 62.35608 L105.58480 63.40733 L105.41717 64.05513 L105.15155 65.08165 L104.85975 65.67674 L104.39735 66.61973 L103.98750 67.14913 L103.33803 67.98803 L102.83838 68.41697 L102.04663 69.09668 L101.46651 69.41932 L100.54725 69.93057 L99.90912 70.13128 L98.89794 70.44933 L98.23700 70.51677 L97.18966 70.62364 L96.52871 70.55620 L95.48137 70.44933 L94.84324 70.24862 L93.83206 69.93057 L93.25194 69.60793 L92.33268 69.09668 L91.83303 68.66774 L91.04128 67.98803 L90.63142 67.45863 L89.98196 66.61973 L89.69016 66.02464 L89.22776 65.08165 L89.06014 64.43385 L88.79451 63.40733 L88.76133 62.74392 z"/>
<path fill="#000000" stroke="#000000" d="M98.58966 83.12500 L97.18966 83.12500 L97.38406 83.11144 L100.10569 82.92156 L102.77953 82.35418 L102.97052 82.31365 L105.53216 81.38304 L105.71514 81.31656 L105.96724 81.18247 L106.75412 80.76393 L108.33806 79.92144 L109.04025 79.41097 L110.67871 78.21989 L111.30828 77.61307 L112.77728 76.19716 L113.63798 75.09665 L114.18575 74.39624 L114.55926 73.91866 L114.60320 73.86247 L114.65081 73.77998 L115.31724 72.62500 L117.99816 72.62500 L118.18966 72.62500 L118.18966 74.02500 L118.18966 77.17500 L118.18966 81.72500 L118.18966 83.12500 z"/>
<path fill="#000000" stroke="#000000" d="M81.69810 25.51589 L81.68045 27.60018 L81.67192 27.63988 L81.23290 29.68446 L81.21653 29.72162 L80.37359 31.63539 L80.35014 31.66837 L79.14255 33.36729 L79.11291 33.39491 L77.58621 34.81728 L77.55200 34.83817 L75.79012 35.91400 L75.75172 35.92783 L73.77420 36.63984 L73.73440 36.64556 L71.68446 36.94007 L71.64381 36.93763 L69.55037 36.81188 L69.51134 36.80136 L67.50090 36.25959 L67.46474 36.24142 L65.60280 35.30540 L65.57099 35.28027 L63.93280 33.98595 L63.90681 33.95505 L62.56788 32.36371 L62.54863 32.32824 L61.55713 30.50151 L61.54540 30.46291 L60.94097 28.47506 L60.93722 28.43448 L60.74423 26.34440 L60.74868 26.30440 L60.97789 24.24410 L60.99039 24.20551 L61.63419 22.21764 L61.65404 22.18263 L62.67617 20.37913 L62.70299 20.34845 L64.08462 18.76834 L64.11676 18.74395 L65.77178 17.48785 L65.80817 17.47040 L67.68232 16.57175 L67.72150 16.56196 L69.73912 16.05768 L69.77962 16.05597 L71.86556 15.96775 L71.90550 15.97423 L73.96266 16.30747 L74.00046 16.32183 L75.94680 17.06152 L75.98116 17.08337 L77.75085 18.20875 L77.77975 18.23672 L79.26783 19.67707 L79.29083 19.71078 L80.47549 21.44690 L80.49096 21.48388 L81.28763 23.38834 L81.29546 23.42809 L81.69845 25.47542 z M79.70405 25.66003 L79.50090 24.62797 L79.37270 23.97667 L78.97000 23.01401 L78.71587 22.40651 L78.11789 21.53017 L77.74053 20.97713 L76.98588 20.24669 L76.50965 19.78574 L75.61491 19.21675 L75.05027 18.85769 L74.06636 18.48376 L73.44545 18.24779 L72.40702 18.07958 L71.75170 17.97342 L70.69147 18.01826 L70.02240 18.04655 L69.00702 18.30033 L68.36624 18.46049 L67.41758 18.91537 L66.81890 19.20243 L65.98634 19.83432 L65.46093 20.23309 L64.75836 21.03659 L64.31499 21.54365 L63.79963 22.45298 L63.47440 23.02682 L63.14865 24.03263 L62.94309 24.66736 L62.82752 25.70616 L62.75459 26.36172 L62.85273 27.42454 L62.91466 28.09525 L63.21872 29.09525 L63.41060 29.72632 L63.91248 30.65099 L64.22920 31.23451 L64.90303 32.03536 L65.32826 32.54076 L66.16090 33.19862 L66.68635 33.61378 L67.62624 34.08627 L68.21937 34.38445 L69.23568 34.65832 L69.87704 34.83115 L70.93546 34.89473 L71.60340 34.93485 L72.64298 34.78549 L73.29903 34.69124 L74.29722 34.33184 L74.92714 34.10503 L75.81773 33.56122 L76.37975 33.21804 L77.14937 32.50102 L77.63505 32.04853 L78.24917 31.18454 L78.63673 30.63930 L79.06110 29.67584 L79.32890 29.06782 L79.54993 28.03850 L79.68941 27.38893 L79.69838 26.32895 z"/>
<path fill="#000000" stroke="#000000" d="M79.69838 26.32895 L79.68941 27.38893 L79.54993 28.03850 L79.32890 29.06782 L79.06110 29.67584 L78.63673 30.63930 L78.24917 31.18454 L77.63505 32.04853 L77.14937 32.50102 L76.37975 33.21804 L75.81773 33.56122 L74.92714 34.10503 L74.29722 34.33184 L73.29903 34.69124 L72.64298 34.78549 L71.60340 34.93485 L70.93546 34.89473 L69.87704 34.83115 L69.23568 34.65832 L68.21937 34.38445 L67.62624 34.08627 L66.68635 33.61378 L66.16090 33.19862 L65.32826 32.54076 L64.90303 32.03536 L64.22920 31.23451 L63.91248 30.65099 L63.41060 29.72632 L63.21872 29.09525 L62.91466 28.09525 L62.85273 27.42454 L62.75459 26.36172 L62.82752 25.70616 L62.94309 24.66736 L63.14865 24.03263 L63.47440 23.02682 L63.79963 22.45298 L64.31499 21.54365 L64.75836 21.03659 L65.46093 20.23309 L65.98634 19.83432 L66.81890 19.20243 L67.41758 18.91537 L68.36624 18.46049 L69.00702 18.30033 L70.02240 18.04655 L70.69147 18.01826 L71.75170 17.97342 L72.40702 18.07958 L73.44545 18.24779 L74.06636 18.48376 L75.05027 18.85769 L75.61491 19.21675 L76.50965 19.78574 L76.98588 20.24669 L77.74053 20.97713 L78.11789 21.53017 L78.71587 22.40651 L78.97000 23.01401 L79.37270 23.97667 L79.50090 24.62797 L79.70405 25.66003 z"/>
<path fill="#000000" stroke="#000000" d="M91.65344 31.58770 L91.22209 32.91959 L91.26908 32.73047 L91.92700 30.08273 L92.21105 27.36416 L92.23134 27.16998 L92.13526 24.44622 L92.12840 24.25167 L92.07850 23.97051 L91.92277 23.09296 L91.60929 21.32650 L91.34001 20.50119 L90.71169 18.57546 L90.32837 17.78955 L89.43396 15.95576 L88.65217 14.79786 L88.15461 14.06093 L87.81534 13.55845 L87.77543 13.49933 L87.71161 13.42863 L86.81815 12.43876 L87.64417 9.88826 L87.70317 9.70608 L89.03506 10.13743 L92.03182 11.10797 L96.36047 12.50986 L97.69236 12.94122 z"/>
<path fill="#000000" stroke="#000000" d="M39.79475 40.89650 L39.44163 42.93716 L39.42675 42.97506 L38.66049 44.92728 L38.63842 44.96115 L37.50212 46.70592 L37.47366 46.73469 L36.00827 48.21644 L35.97454 48.23893 L34.23748 49.39718 L34.20006 49.41236 L32.27295 50.19424 L32.23327 50.20159 L30.18961 50.58032 L30.14927 50.57956 L28.07193 50.54037 L28.03217 50.53140 L25.98470 50.06933 L25.94802 50.05274 L24.05930 49.19831 L24.02645 49.17450 L22.33467 47.94813 L22.30750 47.91844 L20.90794 46.38920 L20.88705 46.35420 L19.81100 44.55204 L19.79773 44.51395 L19.11430 42.55185 L19.10895 42.51185 L18.83317 40.45177 L18.83596 40.41148 L18.97959 38.33677 L18.99047 38.29771 L19.55092 36.28654 L19.56941 36.25055 L20.52182 34.39693 L20.54715 34.36542 L21.85189 32.74276 L21.88329 32.71683 L23.50029 31.38132 L23.53582 31.36247 L25.36540 30.39209 L25.40456 30.38063 L27.42172 29.79020 L27.46167 29.78691 L29.51909 29.61749 L29.55931 29.62233 L31.63099 29.87147 L31.66938 29.88430 L33.64629 30.54493 L33.68141 30.56530 L35.49038 31.61442 L35.52067 31.64147 L37.08046 33.03435 L37.10459 33.06684 L38.34739 34.74017 L38.36450 34.77690 L39.24571 36.66830 L39.25501 36.70729 L39.73398 38.71533 L39.73527 38.75612 L39.80160 40.85687 z M37.80152 40.70688 L37.76804 39.64649 L37.74691 38.97731 L37.50480 37.96229 L37.35201 37.32175 L36.90779 36.36829 L36.62746 35.76659 L35.99542 34.91560 L35.59657 34.37858 L34.81131 33.67735 L34.31576 33.23482 L33.40505 32.70665 L32.83033 32.37334 L31.82497 32.03737 L31.19051 31.82535 L30.14617 31.69976 L29.48712 31.62050 L28.44714 31.70614 L27.79085 31.76019 L26.77265 32.05822 L26.13010 32.24629 L25.20227 32.73840 L24.61675 33.04895 L23.79920 33.72418 L23.28328 34.15029 L22.62371 34.97057 L22.20748 35.48822 L21.72672 36.42391 L21.42333 37.01439 L21.13847 38.03661 L20.95870 38.68170 L20.88642 39.72582 L20.84080 40.38473 L20.98040 41.42751 L21.06849 42.08558 L21.41229 43.07262 L21.62926 43.69551 L22.17644 44.61193 L22.52174 45.19025 L23.22740 45.96129 L23.67272 46.44788 L24.52871 47.06839 L25.06890 47.45997 L26.02120 47.89077 L26.62217 48.16264 L27.66333 48.39761 L28.32037 48.54589 L29.36539 48.56560 L30.02487 48.57804 L31.05934 48.38633 L31.71216 48.26536 L32.68200 47.87187 L33.29403 47.62355 L34.17692 47.03485 L34.73409 46.66333 L35.47381 45.91536 L35.94062 45.44335 L36.51504 44.56134 L36.87753 44.00473 L37.26495 43.01771 L37.50943 42.39484 L37.68851 41.35996 z"/>
<path fill="#000000" stroke="#000000" d="M37.68851 41.35996 L37.50943 42.39484 L37.26495 43.01771 L36.87753 44.00473 L36.51504 44.56134 L35.94062 45.44335 L35.47381 45.91536 L34.73409 46.66333 L34.17692 47.03485 L33.29403 47.62355 L32.68200 47.87187 L31.71216 48.26536 L31.05934 48.38633 L30.02487 48.57804 L29.36539 48.56560 L28.32037 48.54589 L27.66333 48.39761 L26.62217 48.16264 L26.02120 47.89077 L25.06890 47.45997 L24.52871 47.06839 L23.67272 46.44788 L23.22740 45.96129 L22.52174 45.19025 L22.17644 44.61193 L21.62926 43.69551 L21.41229 43.07262 L21.06849 42.08558 L20.98040 41.42751 L20.84080 40.38473 L20.88642 39.72582 L20.95870 38.68170 L21.13847 38.03661 L21.42333 37.01439 L21.72672 36.42391 L22.20748 35.48822 L22.62371 34.97057 L23.28328 34.15029 L23.79920 33.72418 L24.61675 33.04895 L25.20227 32.73840 L26.13010 32.24629 L26.77265 32.05822 L27.79085 31.76019 L28.44714 31.70614 L29.48712 31.62050 L30.14617 31.69976 L31.19051 31.82535 L31.82497 32.03737 L32.83033 32.37334 L33.40505 32.70665 L34.31576 33.23482 L34.81131 33.67735 L35.59657 34.37858 L35.99542 34.91560 L36.62746 35.76659 L36.90779 36.36829 L37.35201 37.32175 L37.50480 37.96229 L37.74691 38.97731 L37.76804 39.64649 L37.80152 40.70688 z"/>
<path fill="#000000" stroke="#000000" d="M18.48774 19.28924 L19.30942 18.15573 L21.15819 15.60534 L23.82865 11.92143 L24.65033 10.78792 L40.51946 22.29142 L41.65297 23.11310 L41.48761 23.00999 L39.17260 21.56636 L36.67473 20.45643 L36.49631 20.37715 L33.87608 19.62715 L33.68892 19.57358 L33.40610 19.53419 L32.52336 19.41123 L30.74646 19.16372 L29.87833 19.16489 L27.85269 19.16762 L26.98681 19.28942 L24.96641 19.57363 L23.62365 19.95951 L22.76906 20.20510 L22.18635 20.37256 L22.11780 20.39226 L22.03084 20.43112 L20.81339 20.97510 L18.64278 19.40163 z"/>
<path fill="#000000" stroke="#000000" d="M39.81706 84.51028 L39.54128 86.57036 L39.52801 86.60846 L38.84458 88.57055 L38.82369 88.60554 L37.74764 90.40770 L37.72046 90.43740 L36.32091 91.96664 L36.28806 91.99045 L34.59629 93.21682 L34.55961 93.23341 L32.67088 94.08783 L32.63113 94.09680 L30.58366 94.55888 L30.54332 94.55964 L28.46598 94.59883 L28.42629 94.59147 L26.38263 94.21275 L26.34521 94.19756 L24.41810 93.41568 L24.38437 93.39319 L22.64731 92.23495 L22.61886 92.20617 L21.15346 90.72442 L21.13140 90.69055 L19.99510 88.94578 L19.98022 88.90788 L19.21396 86.95566 L19.20710 86.91604 L18.85398 84.87538 L18.85527 84.83459 L18.92160 82.73384 L18.93090 82.69485 L19.40987 80.68681 L19.42698 80.65008 L20.30819 78.75868 L20.33232 78.72618 L21.57513 77.05286 L21.60541 77.02581 L23.16520 75.63293 L23.20033 75.61256 L25.00930 74.56343 L25.04768 74.55060 L27.02459 73.88997 L27.06482 73.88514 L29.13650 73.63600 L29.17645 73.63929 L31.23386 73.80871 L31.27303 73.82017 L33.29019 74.41060 L33.32571 74.42944 L35.15529 75.39982 L35.18669 75.42576 L36.80369 76.76127 L36.82903 76.79277 L38.13376 78.41544 L38.15226 78.45143 L39.10466 80.30505 L39.11554 80.34410 L39.67599 82.35527 L39.67878 82.39556 L39.82241 84.47027 z M37.81478 84.40323 L37.74250 83.35912 L37.69688 82.70021 L37.41202 81.67798 L37.23226 81.03289 L36.75149 80.09721 L36.44810 79.50673 L35.78853 78.68645 L35.37230 78.16879 L34.55476 77.49357 L34.03884 77.06746 L33.11101 76.57535 L32.52548 76.26480 L31.50728 75.96677 L30.86473 75.77869 L29.82476 75.69305 L29.16846 75.63901 L28.12412 75.76460 L27.46507 75.84386 L26.45970 76.17983 L25.82525 76.39185 L24.91454 76.92002 L24.33983 77.25333 L23.55457 77.95456 L23.05902 78.39708 L22.42698 79.24807 L22.02812 79.78509 L21.58390 80.73856 L21.30357 81.34026 L21.06146 82.35527 L20.90867 82.99582 L20.87519 84.05621 L20.85406 84.72539 L21.03314 85.76027 L21.14615 86.41334 L21.53356 87.40036 L21.77805 88.02324 L22.35247 88.90525 L22.71497 89.46185 L23.45468 90.20982 L23.92149 90.68184 L24.80439 91.27054 L25.36156 91.64206 L26.33139 92.03554 L26.94342 92.28386 L27.97789 92.47557 L28.63072 92.59655 L29.67574 92.57683 L30.33521 92.56439 L31.37637 92.32942 L32.03341 92.18114 L32.98571 91.75034 L33.58668 91.47848 L34.44267 90.85797 L34.98286 90.46638 L35.68852 89.69534 L36.13384 89.20875 L36.68102 88.29234 L37.02633 87.71402 L37.37013 86.72698 L37.58709 86.10409 L37.72669 85.06130 z"/>
<path fill="#000000" stroke="#000000" d="M37.72669 85.06130 L37.58709 86.10409 L37.37013 86.72698 L37.02633 87.71402 L36.68102 88.29234 L36.13384 89.20875 L35.68852 89.69534 L34.98286 90.46638 L34.44267 90.85797 L33.58668 91.47848 L32.98571 91.75034 L32.03341 92.18114 L31.37637 92.32942 L30.33521 92.56439 L29.67574 92.57683 L28.63072 92.59655 L27.97789 92.47557 L26.94342 92.28386 L26.33139 92.03554 L25.36156 91.64206 L24.80439 91.27054 L23.92149 90.68184 L23.45468 90.20982 L22.71497 89.46185 L22.35247 88.90525 L21.77805 88.02324 L21.53356 87.40036 L21.14615 86.41334 L21.03314 85.76027 L20.85406 84.72539 L20.87519 84.05621 L20.90867 82.99582 L21.06146 82.35527 L21.30357 81.34026 L21.58390 80.73856 L22.02812 79.78509 L22.42698 79.24807 L23.05902 78.39708 L23.55457 77.95456 L24.33983 77.25333 L24.91454 76.92002 L25.82525 76.39185 L26.45970 76.17983 L27.46507 75.84386 L28.12412 75.76460 L29.16846 75.63901 L29.82476 75.69305 L30.86473 75.77869 L31.50728 75.96677 L32.52548 76.26480 L33.11101 76.57535 L34.03884 77.06746 L34.55476 77.49357 L35.37230 78.16879 L35.78853 78.68645 L36.44810 79.50673 L36.75149 80.09721 L37.23226 81.03289 L37.41202 81.67798 L37.69688 82.70021 L37.74250 83.35912 L37.81478 84.40323 z"/>
<path fill="#000000" stroke="#000000" d="M8.34004 84.85126 L8.34991 84.94599 L8.48821 86.27225 L6.31760 87.84572 L6.16256 87.95811 L5.34088 86.82460 L3.49210 84.27421 L0.82164 80.59030 L-0.00003 79.45679 L15.86910 67.95329 L17.00261 67.13161 L16.85317 67.25669 L14.76104 69.00779 L12.92917 71.03648 L12.79833 71.18138 L11.27048 73.43832 L11.16135 73.59953 L11.03593 73.85606 L10.64449 74.65676 L9.85652 76.26852 L9.58759 77.09394 L8.96008 79.01993 L8.80649 79.88075 L8.44813 81.88932 L8.39718 83.28550 L8.36475 84.17408 L8.34264 84.77998 z"/>
<path fill="#000000" stroke="#000000" d="M60.79680 96.78701 L61.19979 94.73969 L61.21526 94.70271 L62.01193 92.79825 L62.03493 92.76454 L63.21959 91.02842 L63.24848 91.00045 L64.73657 89.56010 L64.77093 89.53825 L66.54062 88.41287 L66.57841 88.39850 L68.52475 87.65882 L68.56470 87.65235 L70.62186 87.31911 L70.66237 87.32082 L72.74830 87.40903 L72.78748 87.41883 L74.80510 87.92310 L74.84149 87.94055 L76.71564 88.83920 L76.74777 88.86359 L78.40279 90.11969 L78.42962 90.15037 L79.81125 91.73048 L79.83110 91.76550 L80.85323 93.56900 L80.86573 93.60760 L81.50953 95.59546 L81.51398 95.63546 L81.74318 97.69575 L81.73944 97.73634 L81.54645 99.82641 L81.53471 99.86501 L80.93029 101.85286 L80.91103 101.88833 L79.91954 103.71506 L79.89354 103.74596 L78.55461 105.33730 L78.52280 105.36243 L76.88462 106.65675 L76.84847 106.67493 L74.98652 107.61094 L74.94749 107.62146 L72.93705 108.16323 L72.89640 108.16568 L70.80296 108.29142 L70.76315 108.28570 L68.71321 107.99119 L68.67482 107.97737 L66.69730 107.26535 L66.66309 107.24446 L64.90120 106.16863 L64.87156 106.14101 L63.34486 104.71864 L63.32142 104.68565 L62.11383 102.98674 L62.09746 102.94958 L61.25452 101.03581 L61.24600 100.99611 L60.80697 98.95153 L60.80663 98.91106 L60.78897 96.82677 z M79.73283 97.71307 L79.61726 96.67427 L79.54433 96.01871 L79.21859 95.01290 L79.01302 94.37817 L78.49766 93.46885 L78.17243 92.89500 L77.46986 92.09150 L77.02649 91.58444 L76.19392 90.95255 L75.66852 90.55379 L74.71985 90.09890 L74.12118 89.81184 L73.10579 89.55806 L72.46502 89.39791 L71.40479 89.35307 L70.73572 89.32477 L69.69729 89.49299 L69.04197 89.59914 L68.05806 89.97307 L67.43715 90.20904 L66.54241 90.77802 L65.97777 91.13709 L65.22312 91.86753 L64.74689 92.32849 L64.14891 93.20483 L63.77155 93.75786 L63.36885 94.72052 L63.11472 95.32802 L62.91157 96.36008 L62.78337 97.01138 L62.79235 98.07137 L62.79801 98.74029 L63.01904 99.76960 L63.15852 100.41918 L63.58288 101.38264 L63.85069 101.99065 L64.46482 102.85465 L64.85237 103.39989 L65.62199 104.11691 L66.10766 104.56939 L66.99825 105.11320 L67.56028 105.45639 L68.55846 105.81579 L69.18839 106.04259 L70.22797 106.19195 L70.88402 106.28620 L71.94244 106.22262 L72.61038 106.18250 L73.62669 105.90863 L74.26805 105.73580 L75.20793 105.26331 L75.80107 104.96514 L76.63371 104.30727 L77.15916 103.89211 L77.83299 103.09126 L78.25822 102.58586 L78.76010 101.66120 L79.07682 101.07767 L79.38088 100.07767 L79.57276 99.44660 L79.67090 98.38378 z"/>
<path fill="#000000" stroke="#000000" d="M62.78337 97.01138 L62.91157 96.36008 L63.11472 95.32802 L63.36885 94.72052 L63.77155 93.75786 L64.14891 93.20483 L64.74689 92.32849 L65.22312 91.86753 L65.97777 91.13709 L66.54241 90.77802 L67.43715 90.20904 L68.05806 89.97307 L69.04197 89.59914 L69.69729 89.49299 L70.73572 89.32477 L71.40479 89.35307 L72.46502 89.39791 L73.10579 89.55806 L74.12118 89.81184 L74.71985 90.09890 L75.66852 90.55379 L76.19392 90.95255 L77.02649 91.58444 L77.46986 92.09150 L78.17243 92.89500 L78.49766 93.46885 L79.01302 94.37817 L79.21859 95.01290 L79.54433 96.01871 L79.61726 96.67427 L79.73283 97.71307 L79.67090 98.38378 L79.57276 99.44660 L79.38088 100.07767 L79.07682 101.07767 L78.76010 101.66120 L78.25822 102.58586 L77.83299 103.09126 L77.15916 103.89211 L76.63371 104.30727 L75.80107 104.96514 L75.20793 105.26331 L74.26805 105.73580 L73.62669 105.90863 L72.61038 106.18250 L71.94244 106.22262 L70.88402 106.28620 L70.22797 106.19195 L69.18839 106.04259 L68.55846 105.81579 L67.56028 105.45639 L66.99825 105.11320 L66.10766 104.56939 L65.62199 104.11691 L64.85237 103.39989 L64.46482 102.85465 L63.85069 101.99065 L63.58288 101.38264 L63.15852 100.41918 L63.01904 99.76960 L62.79801 98.74029 L62.79235 98.07137 z"/>
<path fill="#000000" stroke="#000000" d="M66.39290 121.44554 L63.39614 122.41608 L59.06749 123.81797 L57.73560 124.24932 L51.69668 105.60284 L51.26533 104.27095 L51.33813 104.45171 L52.35733 106.98244 L53.72094 109.35138 L53.81834 109.52059 L55.49294 111.67089 L55.61256 111.82448 L55.81781 112.02301 L56.45843 112.64265 L57.74796 113.88995 L58.44994 114.40070 L60.08790 115.59247 L60.85917 116.00445 L62.65881 116.96574 L63.97097 117.44548 L64.80608 117.75081 L65.37551 117.95900 L65.44250 117.98349 L65.53566 118.00336 L66.83978 118.28151 L67.66579 120.83201 L67.72479 121.01419 z"/>
</svg>